<?xml version="1.0" encoding="utf-8"?>
<!-- Generator: Adobe Illustrator 15.0.0, SVG Export Plug-In . SVG Version: 6.00 Build 0)  -->
<!DOCTYPE svg PUBLIC "-//W3C//DTD SVG 1.1//EN" "http://www.w3.org/Graphics/SVG/1.1/DTD/svg11.dtd">
<svg version="1.1" id="Layer_1" xmlns="http://www.w3.org/2000/svg" xmlns:xlink="http://www.w3.org/1999/xlink" x="0px" y="0px"
	 width="816.6px" height="588.4px" viewBox="0 0 816.6 588.4" style="enable-background:new 0 0 816.6 588.4;" xml:space="preserve"
	>
<style type="text/css">
<![CDATA[
	.st0{fill:#FFFFFF;stroke:#E20613;stroke-width:0.8504;stroke-miterlimit:10;}
	.st1{fill:#FFFFFF;stroke:#E20613;stroke-width:2.270000e-002;stroke-miterlimit:10;}
	.st2{fill:none;stroke:#FF0000;stroke-width:0.8504;stroke-miterlimit:10;}
	.st3{fill:none;stroke:#E20613;stroke-width:0.8504;stroke-miterlimit:10;}
]]>
</style>
<g>
	<path class="st2" d="M321.4,226h17.2v8.6h17.2V226H373v8.6h17.2V226h17.2v8.6h17.2V226h17.2v8.6H459V226h17.2 M293.9,198.5
		c0,15.1,12.3,27.4,27.4,27.4l0,0"/>
	<polyline class="st2" points="293.9,198.5 293.9,184.5 285.4,184.5 285.4,170.4 293.9,170.4 293.9,156.3 285.4,156.3 285.4,142.2 
		293.9,142.2 293.9,128.2 285.4,128.2 285.4,114.1 293.9,114.1 293.9,100 285.4,100 285.4,85.9 293.9,85.9 293.9,71.9 285.4,71.9 
		285.4,57.8 293.9,57.8 293.9,43.7 	"/>
	<path class="st2" d="M293.9,43.7c0-15.1,12.3-27.4,27.4-27.4h3.1V7.7h17.1v8.6h8.3h34h32V7.7H433v8.6h43.1l0,0
		c15.1,0,27.4,12.3,27.4,27.4"/>
	<polyline class="st2" points="503.6,43.7 503.6,57.8 512.2,57.8 512.2,71.9 503.6,71.9 503.6,85.9 512.2,85.9 512.2,100 503.6,100 
		503.6,114.1 512.2,114.1 512.2,128.2 503.6,128.2 503.6,142.2 512.2,142.2 512.2,156.3 503.6,156.3 503.6,170.4 512.2,170.4 
		512.2,184.5 503.6,184.5 503.6,198.5 	"/>
	<path class="st2" d="M503.6,198.5c0,15.1-12.3,27.4-27.4,27.4"/>
</g>
<path class="st2" d="M476.2,366.4H459v-8.6h-17.2v8.6h-17.2v-8.6l-17.2,0v8.6h-17.2v-8.6H373v8.6h-17.2v-8.6h-17.2v8.6h-17.2
	 M321.4,366.4L321.4,366.4c-15.1,0-27.4,12.3-27.4,27.4"/>
<polyline class="st2" points="293.9,393.8 293.9,407.9 285.4,407.9 285.4,421.9 293.9,421.9 293.9,436 285.4,436 285.4,450.1 
	293.9,450.1 293.9,464.2 285.4,464.2 285.4,478.2 293.9,478.2 293.9,492.3 285.4,492.3 285.4,506.4 293.9,506.4 293.9,520.4 
	285.4,520.4 285.4,534.5 293.9,534.5 293.9,548.6 "/>
<path class="st2" d="M293.9,548.6c0,15.1,12.3,27.4,27.4,27.4h3.1v8.6h17.1V576h8.3V502l34,0V576h32v8.6l17.1,0V576h43.1l0,0
	c15.1,0,27.4-12.3,27.4-27.4"/>
<polyline class="st2" points="503.6,548.6 503.6,534.5 512.2,534.5 512.2,520.4 503.6,520.4 503.6,506.4 512.2,506.4 512.2,492.3 
	503.6,492.3 503.6,478.2 512.2,478.2 512.2,464.2 503.6,464.2 503.6,450.1 512.2,450.1 512.2,436 503.6,436 503.6,421.9 
	512.2,421.9 512.2,407.9 503.6,407.9 503.6,393.8 "/>
<path class="st2" d="M503.6,393.8c0-15.1-12.3-27.4-27.4-27.4"/>
<rect x="425.2" y="562.8" class="st2" width="8.5" height="7.7"/>
<rect x="425.2" y="432.4" class="st2" width="8.5" height="7.7"/>
<rect x="473.7" y="562.8" class="st2" width="8.5" height="7.7"/>
<rect x="473.7" y="432.4" class="st2" width="8.5" height="7.7"/>
<polygon class="st2" points="153.7,417.9 153.7,426.3 88.4,426.3 88.4,548.8 153.7,548.8 153.7,557 80.4,557 80.4,417.9 "/>
<g>
	<path class="st3" d="M42.7,36.2h21.4c0.3,0,2.6-2.6,2.6-2.3l-2,13.1c0,0.3-0.3,0.6-0.6,0.6H42.7H32.2v330.8c0,3.1-2.5,5.7-5.7,5.7
		h-17c-3.1,0-5.7-2.5-5.7-5.7V12.9c0-3.1,2.5-5.7,5.7-5.7h17h9.2H63c0.3,0,0.6,0.3,0.6,0.6l3.2,15.1c0,0.3-3.4-4.3-3.7-4.3H35.7
		h-3.6v17.7L42.7,36.2z"/>
	<circle class="st0" cx="18.8" cy="374" r="2.1"/>
</g>
<polygon class="st2" points="100.4,538 100.4,529.5 165.7,529.5 165.7,407.1 100.4,407.1 100.4,398.9 173.7,398.9 173.7,538 "/>
<path class="st2" d="M613.7,278.2c0,0.7-0.4,1.2-0.9,1.2h-32.3c-0.5,0-0.9-0.5-0.9-1.2v-17.5c0-0.7,0.4-1.2,0.9-1.2h32.3
	c0.5,0,0.9,0.5,0.9,1.2V278.2z"/>
<path class="st2" d="M80.4,361.8v-61.6 M80.4,291.6V230 M84.7,225.7v30.8 M84.7,265.1v61.6 M84.7,335.3v30.8 M89,361.8v-61.6
	 M89,291.6V230 M93.3,225.7v30.8 M93.3,265.1v61.6 M93.3,335.3v30.8 M97.6,361.8v-61.6 M97.6,291.6V230 M101.9,225.7v30.8
	 M101.9,265.1v61.6 M101.9,335.3v30.8 M106.2,361.8v-61.6 M106.2,291.6V230 M110.6,225.7v30.8 M110.6,265.1v61.6 M110.6,335.3v30.8
	 M114.9,361.8v-61.6 M114.9,291.6V230 M119.2,225.7v30.8 M119.2,265.1v61.6 M119.2,335.3v30.8 M123.5,361.8v-61.6 M123.5,291.6V230
	 M80.4,225.7h43.1 M123.5,366.1H80.4 M278.3,361.8v-61.6 M278.3,291.6V230 M282.6,225.7v30.8 M282.6,265.1v61.6 M282.6,335.3v30.8
	 M286.9,361.8v-61.6 M286.9,291.6V230 M291.2,225.7v30.8 M291.2,265.1v61.6 M291.2,335.3v30.8 M295.5,361.8v-61.6 M295.5,291.6V230
	 M299.8,225.7v30.8 M299.8,265.1v61.6 M299.8,335.3v30.8 M304.1,361.8v-61.6 M304.1,291.6V230 M308.4,225.7v30.8 M308.4,265.1v61.6
	 M308.4,335.3v30.8 M312.8,361.8v-61.6 M312.8,291.6V230 M317.1,225.7v30.8 M317.1,265.1v61.6 M317.1,335.3v30.8 M321.4,361.8v-61.6
	 M321.4,291.6V230 M278.3,225.7h43.1 M321.4,366.1h-43.1 M123.5,225.7h14.1v8.6h14.1v-8.6h14.1v8.6h14.1v-8.6h14.1v8.6h14.1v-8.6
	H222v8.6h14.1v-8.6h14.1v8.6h14.1v-8.6h14.1"/>
<polyline class="st2" points="278.3,366.1 264.2,366.1 264.2,357.5 250.1,357.5 250.1,366.1 236.1,366.1 236.1,357.5 222,357.5 
	222,366.1 207.9,366.1 207.9,357.5 193.8,357.5 193.8,366.1 179.8,366.1 179.8,357.5 165.7,357.5 165.7,366.1 151.6,366.1 
	151.6,357.5 137.6,357.5 137.6,366.1 123.5,366.1 "/>
<path class="st2" d="M717.2,361.8v-61.6 M717.2,291.6V230 M712.8,225.7v30.8 M712.8,265.1v61.6 M712.8,335.3v30.8 M708.5,361.8
	v-61.6 M708.5,291.6V230 M704.2,225.7v30.8 M704.2,265.1v61.6 M704.2,335.3v30.8 M699.9,361.8v-61.6 M699.9,291.6V230 M695.6,225.7
	v30.8 M695.6,265.1v61.6 M695.6,335.3v30.8 M691.3,361.8v-61.6 M691.3,291.6V230 M687,225.7v30.8 M687,265.1v61.6 M687,335.3v30.8
	 M682.7,361.8v-61.6 M682.7,291.6V230 M678.4,225.7v30.8 M678.4,265.1v61.6 M678.4,335.3v30.8 M674.1,361.8v-61.6 M674.1,291.6V230
	 M717.2,225.7h-43.1 M674.1,366.1h43.1 M519.3,361.8v-61.6 M519.3,291.6V230 M515,225.7v30.8 M515,265.1v61.6 M515,335.3v30.8
	 M510.6,361.8v-61.6 M510.6,291.6V230 M506.3,225.7v30.8 M506.3,265.1v61.6 M506.3,335.3v30.8 M502,361.8v-61.6 M502,291.6V230
	 M497.7,225.7v30.8 M497.7,265.1v61.6 M497.7,335.3v30.8 M493.4,361.8v-61.6 M493.4,291.6V230 M489.1,225.7v30.8 M489.1,265.1v61.6
	 M489.1,335.3v30.8 M484.8,361.8v-61.6 M484.8,291.6V230 M480.5,225.7v30.8 M480.5,265.1v61.6 M480.5,335.3v30.8 M476.2,361.8v-61.6
	 M476.2,291.6V230 M519.3,225.7h-43.1 M476.2,366.1h43.1 M674.1,225.7H660v8.6h-14.1v-8.6h-14.1v8.6h-14.1v-8.6h-14.1v8.6h-14.1
	v-8.6h-14.1v8.6h-14.1v-8.6h-14.1v8.6h-14.1v-8.6h-14.1"/>
<polyline class="st2" points="519.3,366.1 533.3,366.1 533.3,357.5 547.4,357.5 547.4,366.1 561.5,366.1 561.5,357.5 575.6,357.5 
	575.6,366.1 589.6,366.1 589.6,357.5 603.7,357.5 603.7,366.1 617.8,366.1 617.8,357.5 631.8,357.5 631.8,366.1 645.9,366.1 
	645.9,357.5 660,357.5 660,366.1 674.1,366.1 "/>
<path class="st2" d="M476.2,366.1H459v-8.6h-17.2v8.6h-17.2v-8.6h-17.2v8.6h-17.2v-8.6H373v8.6h-17.2v-8.6h-17.2v8.6h-17.2"/>
<path class="st2" d="M321.4,226h17.2v8.6h17.2V226H373v8.6h17.2V226h17.2v8.6h17.2V226h17.2v8.6H459V226h17.2"/>
<polyline class="st2" points="80.4,225.7 78.3,225.7 78.3,234.5 61.1,234.5 61.1,226 53,226 53,366.1 60.8,366.1 60.8,357.7 
	78.3,357.7 78.3,366.1 80.4,366.1 "/>
<polyline class="st2" points="717,225.7 762.1,225.7 762.1,234.2 779.2,234.2 779.2,225.7 810.4,225.7 810.4,366.1 779.2,366.1 
	779.2,357.5 762.1,357.5 762.1,366.1 717,366.1 "/>
<circle class="st1" cx="-159.8" cy="202.2" r="2.1"/>
<g>
	<circle class="st3" cx="125.9" cy="106.8" r="2.1"/>
	<path class="st3" d="M62.3,121.1c-5.1,0-9.3-3.8-9.3-8.5v-11.7c0-4.7,4.2-8.5,9.3-8.5h66.5c5.1,0,9.3,3.8,9.3,8.5v11.7
		c0,4.7-4.1,8.5-9.3,8.5H62.3z"/>
	<path class="st3" d="M59.8,106.8c0-3,2.4-5.4,5.4-5.4c3,0,5.4,2.4,5.4,5.4c0,3-2.4,5.4-5.4,5.4C62.3,112.2,59.8,109.7,59.8,106.8z"
		/>
</g>
</svg>
